<svg version="1.2" xmlns="http://www.w3.org/2000/svg" viewBox="0 0 1569 483" width="1569" height="483">
	<title>GB_2023_Konzern_e-1-pdf-svg</title>
	<defs>
		<clipPath clipPathUnits="userSpaceOnUse" id="cp1">
			<path d="m3405.5-5877.22v6837.74h-12149.67v-6837.74z"/>
		</clipPath>
	</defs>
	<style>
		.s0 { fill: #0055b8 } 
	</style>
	<g id="Clip-Path: Page 1" clip-path="url(#cp1)">
		<g id="Page 1">
			<path id="Path 4" fill-rule="evenodd" class="s0" d="m532.1 124.6c0 0-89.6 108.5-91.9 111.4 2.3 2.9 94.8 118.8 94.8 118.8h-54c0 0-71.3-95.9-78.7-105.6v105.6h-41.4v-230.2h41.4v100.5c7.4-9.2 78.7-100.5 78.7-100.5zm99.9-1.1c54 0 81 21.2 81 63.1 0 34.5-24.1 59.1-62 64.9 2.3 2.3 4.6 5.1 4.6 5.1l12 16.1 62.7 82.1h-51.7c0 0-63.8-89-68.4-95.3v95.3h-41.4v-230.2h2.3c15.5-1.1 33.9-1.1 60.9-1.1zm-21.8 34.4v67.7c2.9 0 15.5 0.6 15.5 0.6 27.6 0 44.8-13.8 44.8-35.6 0-22.9-13.2-33.3-43.6-33.3 0 0-13.3 0.6-16.7 0.6zm249.9-36.7c66 0 104 42.4 104 115.9 0 71.2-45.4 121.2-110.3 121.2-67.3 0-104.6-41.4-104.6-116 0-71.2 46-121.1 110.9-121.1zm-4 200.3c31.6 0 64.9-25.2 64.9-80.9 0-53.4-23-82.7-64.4-82.7-31.6 0-63.7 24.7-63.7 79.8 0 54 22.4 83.8 63.2 83.8zm340-196.9v230.2h-50.5l-78.1-129.2c-8.7-14.3-15-26.9-20.2-37.8 0.6 23.5 1.2 60.8 1.2 88.9v78.1h-39.6v-230.2h51.1l75.2 124c8.7 13.8 16.1 28.1 23 42.5-1.1-26.4-1.7-67.2-1.7-97v-69.5zm187.8 0v35h-82.7v59.7h78.7v34.5h-78.7v65.4h82.7v35.6h-123.5v-230.2z"/>
			<path id="Path 5" class="s0" d="m1426.5 189.5c0 41.9 31 53.9 58.6 64.9 21.8 8.6 40.2 16 40.2 35.5 0 29.3-29.9 32.8-42.5 32.8-14.9 0-32.7-3.5-46.5-8.6l-2.9-1.2-2.3 39.6 2.3 0.6c13.2 3.4 29.9 5.2 46 5.2 53.4 0 89-29.3 89-73.5 0-40.8-31.6-53.4-59.2-64.9-21.2-8.6-39.6-16.1-39.6-34.4 0-18.4 14.9-29.3 40.2-29.3 12.6 0 27 1.7 40.2 5.7l2.9 1.2 2.3-37.3-2.3-0.6c-16.1-2.9-29.3-4-41.4-4-51.7 0-85 26.9-85 68.3zm-1402.8-72.9l-23 16q-0.6 0-0.6 0.6 0 0.6 0 1.2c33.9 48.2 51.7 105.6 51.7 165.3 0 59.1-17.8 116-51.7 164.8q0 0.6 0 1.1 0 0.6 0.6 0.6l23 16.1q0.6 0 1.2 0 0.5 0 0.5-0.6l90.2-181.4q0-0.6 0-1.2l-90.2-182q0-0.5-0.5-0.5-0.6 0-1.2 0zm198.8-116q-0.6 0-1.2 0.6l-111.4 168.8q0 0.5 0 1.1l67.2 191.2q0 0.6 0.6 1.1 0.5 0 1.1 0l24.7-13.2q0.6 0 0.6-0.5 0-0.6 0-1.2c-27.6-52.2-38.5-111.4-31-169.9 6.9-59.2 31.6-113.7 71.2-157.9q0.6-0.6 0.6-1.2-0.6-0.5-0.6-0.5l-20.7-18.4q-0.6-0.6-1.1 0z"/>
		</g>
	</g>
</svg>