<?xml version="1.0" encoding="UTF-8"?>
<svg id="Layer" xmlns="http://www.w3.org/2000/svg" width="1111.2" height="188.9" version="1.1" viewBox="0 0 1111.2 188.9">
  <defs>
    <style>
      .cls-1 {
        fill: #000;
      }

      .cls-1, .cls-2 {
        stroke-width: 0px;
      }

      .cls-2 {
        fill: #fff;
      }
    </style>
  </defs>
  <g id="Group">
    <g id="Group2">
      <path id="Compound_Path2" data-name="Compound Path2" class="cls-2" d="M377.5,0h733.7v188.9H377.5c0-.5.1-.9.1-1.4V1.5c0-.6,0-1-.1-1.5ZM846.6,116.7c.5-.4.8-.5,1.1-.8,4.8-4.9,5.8-12,2.2-18-3.2-5.3-8.2-7.4-14.2-7.4h-19.7c-6.6,0-.7,0-1,0v59.8h22.3c1.6,0,3.1-.1,4.7-.3,6.7-.8,11.4-4.4,14-10.6,2.6-6.2,1.6-12.1-2.5-17.5-1.8-2.3-4-3.9-6.9-5.3h0ZM684.3,104.7h.3c12.5,15.2,24.9,30.5,37.3,45.6h5.1v-59.7h-7.4v45.9c-12.7-15.5-25.1-30.7-37.5-45.9h-5.2v59.7h7.4v-45.5h0ZM587.9,98.3c-10.6-11.1-31.3-12.2-43.4.6-11.4,12.1-11,34,2.2,45.1,12.9,10.7,33,9.4,43.6-3.7v-25.8h-24.7v7h17.3v16.7c-.3.2-.6.5-.9.8-.3.2-.5.5-.8.7-8.1,5.6-16.7,6.1-25.3,1.7-8.9-4.6-12.5-12.5-12.1-22.3.7-16.1,15.5-26.3,30.5-21.1,3.3,1.1,6.2,2.8,8.8,5.3,1.6-1.7,3.1-3.3,4.8-5h0ZM1065.9,138.1c-.3.3-.6.6-.9.9-3.6,3.2-7.9,4.7-12.7,5.1-7.9.5-14.8-1.7-20-7.8-5.7-6.7-6.9-14.6-4.7-23,2.5-9.5,10.4-15.9,20.2-16.6,6.9-.5,13,1.8,18.2,6.5,1.5-1.7,3.1-3.3,4.7-5-.3-.3-.6-.6-1-1-6.4-5.6-13.9-7.9-22.4-7.4-7,.4-13.1,2.9-18.3,7.6-6,5.5-9.1,12.5-9.7,20.6-.6,8.9,1.7,17,7.9,23.6,5.4,5.9,12.3,8.8,20.3,9.4,10,.7,18.3-2.7,25.2-9.9.4-.5.7-1.3.7-1.9v-24.7h-24.7v7h17.3v16.6h0ZM982.5,121.3c.5,0,.8,0,1-.2,10.9-2,16.2-14.5,10-23.8-3.3-5-8.2-6.9-14-6.9h-21.4v59.7h7.3v-28.7h8c7.2,9.6,14.5,19.2,21.7,28.7h9c-7.2-9.7-14.4-19.2-21.6-28.8h0ZM439.9,121.5c.1-.2.2-.2.2-.2h.7c6.5-1.4,10.7-5.3,12.2-11.7,1.5-6.4-.7-11.8-5.8-15.9-3-2.4-6.6-3-10.3-3h-21.3v59.7h7.4v-28.7h7.9c7.2,9.6,14.5,19.2,21.7,28.7h9c-7.5-9.7-14.6-19.3-21.7-28.8h0ZM880.5,90.5v36.6c0,4.7,1.1,9.1,3.7,13.1,4.3,6.6,10.6,10,18.3,10.8,11.4,1.3,26.8-5.6,27.2-23.8.2-11.9,0-23.8,0-35.7s0-.6,0-.9h-7.4v37.4c0,3.8-1.1,7.4-3.7,10.3-4.6,5.1-10.4,6.8-17,5.6-5.4-1-9.6-3.9-12-8.9-1.4-2.9-1.6-6.1-1.7-9.2v-35.1l-7.4-.2h0ZM483.5,150.2h34.4v-7h-26.9v-21.8h19.9v-7h-19.9v-17h26v-6.9h-33.5v59.7ZM625,143.3v-21.9h19.9v-6.9h-19.8v-17h26v-6.9h-33.5v59.7h34.4v-6.9h-27ZM787.2,95.1c-.8-.6-1.6-1.2-2.4-1.7-7.3-4.3-14.8-5.4-22.6-1.5-10.3,5.2-11.4,18.7-2.1,25.3,2.4,1.7,5.2,2.9,7.9,4.2,3.1,1.5,6.3,2.9,9.4,4.5,1.8.9,3.2,2.3,4.1,4.1,2.8,5.2,0,11.5-6,13.5-4.4,1.4-8.7.7-12.6-1.5-2.4-1.4-4.5-3.3-6.9-5.1-1.4,1.5-3.1,3.2-4.8,4.9,7,7.4,15.4,10.8,25.5,8.7,7-1.5,11.5-5.9,12.9-13.1,1.4-7.3-1.2-13-7.5-16.9-2.8-1.7-6-3-9-4.4-3.1-1.4-6.4-2.6-9-4.9-4.2-3.5-3.9-9.5.7-12.6,4.2-2.8,8.8-2.6,13.3-.8,1.6.6,3.1,1.6,4.8,2.5,1.5-1.6,2.9-3.4,4.3-5.2h0Z"/>
      <g id="Group4">
        <path id="Path1" class="cls-1" d="M439.9,121.5c7.1,9.5,14.3,19,21.5,28.7h-9c-7.2-9.5-14.4-19.1-21.7-28.7h-7.9v28.7h-7.4v-59.7h21.3c3.7,0,7.3.7,10.3,3,5.2,4.1,7.3,9.4,5.8,15.9-1.5,6.4-5.7,10.4-12.2,11.7h-.7c.1,0,.1.2,0,.4h0ZM422.9,114.5h14.1c.6,0,1.2,0,1.8-.2,4.4-.7,7.3-4.1,7.2-8.5-.1-4.3-3.1-7.8-7.5-8.1-5.1-.3-10.2-.2-15.3-.2s-.1,0-.2,0v16.9h-.1Z"/>
        <path id="Path2" class="cls-1" d="M483.5,150.2v-59.6h33.5v6.9h-26v17h19.9v7h-19.9v21.8h26.9v7h-34.4Z"/>
        <path id="Path3" class="cls-1" d="M587.9,98.3c-1.6,1.7-3.2,3.3-4.8,5-2.5-2.4-5.5-4.2-8.8-5.3-15.1-5.2-29.9,5-30.5,21.1-.4,9.8,3.2,17.8,12.1,22.3,8.6,4.4,17.2,3.9,25.3-1.7.3-.2.6-.4.8-.7.3-.3.6-.5.9-.8v-16.7h-17.3v-7h24.7v25.8c-10.6,13.1-30.8,14.4-43.6,3.7-13.3-11.1-13.7-33-2.2-45.1,12.1-12.8,32.8-11.7,43.4-.6h0Z"/>
        <path id="Path4" class="cls-1" d="M625,143.3h26.9v6.9h-34.4v-59.7h33.5v6.9h-26v17h19.8v6.9h-19.8v22h0Z"/>
        <path id="Path5" class="cls-1" d="M684.3,104.7v45.5h-7.4v-59.6h5.2c12.4,15.1,24.8,30.3,37.5,45.9v-46h7.4v59.7h-5.1c-12.4-15.1-24.8-30.4-37.3-45.6h-.3Z"/>
        <path id="Path6" class="cls-1" d="M787.2,95.1c-1.5,1.8-2.9,3.5-4.2,5.2-1.6-.9-3.1-1.9-4.8-2.5-4.5-1.8-9.1-1.9-13.3.8-4.6,3-4.9,9-.7,12.6,2.7,2.3,5.9,3.4,9,4.9,3,1.4,6.2,2.7,9,4.4,6.3,3.9,8.9,9.6,7.5,16.9-1.3,7.1-5.9,11.6-12.9,13.1-10.2,2.1-18.6-1.3-25.5-8.7,1.7-1.8,3.3-3.4,4.8-4.9,2.3,1.7,4.4,3.7,6.9,5.1,3.9,2.2,8.2,2.9,12.6,1.5,6-2,8.8-8.2,6-13.5-1-1.8-2.4-3.2-4.1-4.1-3.1-1.6-6.3-2.9-9.4-4.5-2.7-1.3-5.5-2.5-7.9-4.2-9.3-6.6-8.2-20,2.1-25.3,7.7-3.9,15.3-2.8,22.6,1.5.8.6,1.5,1.2,2.3,1.7h0Z"/>
        <path id="Path7" class="cls-1" d="M846.6,116.7c2.9,1.4,5.1,3,6.8,5.2,4.1,5.3,5.1,11.3,2.5,17.5s-7.3,9.8-14,10.6c-1.5.2-3.1.3-4.7.3h-22.3v-59.8h20.7c5.9,0,11,2.1,14.2,7.4,3.6,5.9,2.6,13.1-2.2,18,0,.4-.4.5-1,.9h0ZM822.5,143.3h1.9c5.3-.1,10.7.1,16-.3,6.5-.6,10.6-6.8,9.1-13.1-1.1-4.5-4.8-7.8-9.8-8.1-5.7-.3-11.3-.2-17-.2s0,0-.2,0v21.6h0ZM822.4,114.5h8.9c2,0,4,0,6-.3,4.4-.6,7.4-4,7.3-8.4,0-4.3-3.1-7.8-7.6-8.1-4.8-.3-9.6-.2-14.4-.2s0,0-.2.2v16.8h0Z"/>
        <path id="Path8" class="cls-1" d="M880.5,90.5h7.3v35.1c0,3.2.2,6.3,1.7,9.2,2.5,5,6.6,7.9,12,8.9,6.6,1.2,12.5-.5,17-5.6,2.6-2.9,3.6-6.5,3.7-10.3v-37.4h7.4v.9c0,11.9.2,23.8,0,35.7-.4,18.2-15.8,25.1-27.2,23.8-7.7-.9-14-4.2-18.3-10.8-2.6-3.9-3.7-8.4-3.7-13.1v-36.4h0Z"/>
        <path id="Path9" class="cls-1" d="M982.5,121.3c7.3,9.7,14.4,19.2,21.7,28.9h-9c-7.2-9.5-14.4-19.1-21.7-28.7h-8v28.7h-7.3v-59.7h21.4c5.8,0,10.7,1.9,14,6.9,6.2,9.2.9,21.7-10,23.8-.4,0-.7,0-1.1.1h0ZM965.6,114.3c5.2,0,10.4.3,15.5,0,5.6-.4,7.6-4.9,7.6-8.3s-2.6-8-7.9-8.3c-5-.2-10,0-15,0s0,0-.2.2v16.6h0v-.2h0Z"/>
        <path id="Path10" class="cls-1" d="M1065.9,138.1v-16.6h-17.3v-7h24.7v24.7c0,.6-.2,1.4-.7,1.9-6.8,7.3-15.2,10.7-25.2,9.9-7.9-.6-14.8-3.5-20.3-9.4-6.2-6.7-8.5-14.7-7.9-23.6.5-8.1,3.6-15.1,9.7-20.6,5.2-4.7,11.3-7.2,18.3-7.6,8.4-.5,15.9,1.8,22.4,7.4.4.3.7.7,1,1-1.6,1.7-3.1,3.4-4.7,5-5.2-4.7-11.2-6.9-18.2-6.5-9.8.7-17.7,7.1-20.2,16.6-2.2,8.4-1.1,16.3,4.7,23,5.2,6.1,12.1,8.3,20,7.8,4.7-.3,9-1.9,12.7-5.1.4-.3.7-.6,1-.9h0Z"/>
      </g>
    </g>
    <g id="Group1">
      <path id="Compound_Path1" data-name="Compound Path1" class="cls-1" d="M377.5,0c0,.5.1.9.1,1.4v186c0,.5,0,.9-.1,1.4H0V0h377.5ZM56,124.3c-15.5-20.3-12.3-46.8,3-63,7.7-8.2,17.1-13.3,28.3-14.9,13.7-2,26.1,1.4,37,9.6,1.9-2,3.8-3.8,5.7-5.7-20.8-17.4-55.5-17.8-77.3,5.9-21.2,23.1-17.9,55.7-2.3,73.8,1.9-1.9,3.7-3.8,5.6-5.7h0ZM133,64.6c15.8,20.3,11.8,46.8-2.1,62.2-7.1,7.8-15.7,13.1-26,15.2-14.8,3.1-28.2-.2-40-9-2,2-3.9,3.8-5.7,5.7,21.6,17.8,56.1,17.4,77.5-6.1,20.8-22.9,17.8-55.3,2.1-73.6-2.1,1.8-3.9,3.7-5.8,5.6h0ZM261.2,151.1V37.8h-7.9v113.3h7.9ZM331.9,37.7v113.4h7.9V37.7h-7.9ZM191.4,57.7v93.4h7.9V57.7h-7.9ZM158,45.8h74.6v-8h-74.6v8h0ZM273.3,98.4h46.6v-7.9h-46.6v7.9Z"/>
      <g id="Group3">
        <path id="Path1-2" class="cls-2" d="M56,124.3c-1.9,1.9-3.8,3.8-5.6,5.6-15.6-18.1-18.9-50.7,2.3-73.8,21.8-23.7,56.4-23.3,77.3-5.9-1.9,1.9-3.7,3.8-5.7,5.7-10.9-8.2-23.3-11.6-37-9.6-11.2,1.8-20.6,6.8-28.3,15-15.3,16.2-18.5,42.7-3,63h0Z"/>
        <path id="Path2-2" class="cls-2" d="M133,64.6c1.9-1.9,3.8-3.8,5.6-5.6,15.8,18.4,18.7,50.7-2.1,73.6-21.3,23.5-55.9,23.9-77.5,6.1,1.9-1.9,3.7-3.7,5.7-5.7,11.8,8.8,25.3,12.1,40,9,10.3-2.2,18.9-7.4,26-15.2,14.1-15.3,18-41.9,2.3-62.2h0Z"/>
        <path id="Path3-2" class="cls-2" d="M158,45.8v-8h74.6v8h-74.6Z"/>
        <path id="Path4-2" class="cls-2" d="M191.4,57.7h7.9v93.4h-7.9V57.7Z"/>
        <path id="Path5-2" class="cls-2" d="M261.2,151.1h-7.9V37.8h7.9v113.3Z"/>
        <path id="Path6-2" class="cls-2" d="M273.3,98.4v-7.9h46.6v7.9h-46.6Z"/>
        <path id="Path7-2" class="cls-2" d="M331.9,37.7h7.9v113.4h-7.9V37.7Z"/>
      </g>
    </g>
  </g>
</svg>