<svg version="1.2" baseProfile="tiny-ps" xmlns="http://www.w3.org/2000/svg" viewBox="0 0 1594 827" width="1594" height="827">
	<title>Hoffmann-La_Roche_logo-svg</title>
	<style>
		tspan { white-space:pre }
		.shp0 { fill: #007ac2 } 
	</style>
	<g id="g2997">
		<path id="path6" class="shp0" d="M1078 317.23C1068.02 309.77 1052.33 305.28 1037.1 305.51C1020.56 305.75 1004.75 311.05 993.75 319.83L993.75 215.44L942.09 215.44L942.09 555.87L993.75 555.87L993.75 378.18C993.75 365.78 1004.14 352.14 1023.39 351.32C1031.97 350.94 1043.87 354.67 1049.88 363.68C1056.3 373.22 1055.92 385.9 1055.92 399.75L1055.86 555.87L1107.52 555.87L1107.52 397.8C1107.49 351.18 1101.42 334.58 1078 317.23Z" />
		<path id="path8" fill-rule="evenodd" class="shp0" d="M707.79 393.95C708.43 400.78 709.28 425.15 709.28 434.13C709.28 453.93 708.17 470.47 707.94 474.26C704.55 527.59 673.69 561.35 625.21 561.35C576.75 561.35 545.77 528.14 542.51 474.26C542.24 470.14 540.99 453.93 541.16 434.13C541.43 406.93 542.13 398.44 542.59 393.84C547.87 336.13 577.13 305.54 625.21 305.54C659.13 305.54 700.47 321.17 707.79 393.95ZM657.82 434.13C657.82 400.75 656.51 386.87 656.48 386.55C656.21 367.94 646.44 349.13 625.29 349.13C604.14 349.13 594.4 367.94 594.14 386.75C594.11 386.87 592.8 400.75 592.8 434.13C592.8 467.43 594.08 478.72 594.14 478.83C595.07 496.85 603.79 517.76 625.29 517.76C646.82 517.76 654.7 498.2 656.51 479.71C656.77 476.82 657.82 467.43 657.82 434.13Z" />
		<path id="path10" fill-rule="evenodd" class="shp0" d="M1257.52 471.69L1307.11 471.69C1303.84 528.14 1272.48 561.35 1225.69 561.35C1178.79 561.35 1147.43 527.27 1144.31 474.26C1144.1 470.49 1142.99 453.93 1142.99 434.13C1142.99 406.32 1143.84 399.05 1144.36 393.86C1150.08 335.84 1179.17 305.54 1225.69 305.54C1249.93 305.54 1270.38 314.96 1284.85 332.81C1297.37 348.23 1305.53 372.08 1307.11 393.92C1308.07 408.12 1308.28 414.86 1308.45 418.91C1308.77 429.21 1308.57 446.35 1308.57 446.35L1193.37 446.35C1193.31 467.26 1194.33 473.41 1194.6 478.92C1196.03 498.31 1204.28 517.76 1225.69 517.76C1250.84 517.76 1255.56 492.1 1257.02 480.09C1257.61 475.48 1257.52 471.69 1257.52 471.69ZM1258.19 403.46C1258.28 398.44 1257.72 393.72 1257.29 386.66C1256.41 373.22 1250.58 348.96 1225.81 349.13C1204.89 349.28 1195.79 366.16 1194.33 386.55C1194.1 389.81 1194.1 392.2 1193.72 403.46L1258.19 403.46Z" />
		<path id="path12" fill-rule="evenodd" class="shp0" d="M1593.42 415.94L1237.6 826.56L357.53 826.56L0.39 414.6L357.5 -0.02L1237.62 -0.02L1593.42 415.94ZM55.52 415.91L377.72 787.48L1217.41 787.48L1538.35 417.16L1217.32 41.68L377.78 41.68L55.52 415.91Z" />
		<path id="path14" fill-rule="evenodd" class="shp0" d="M513.16 555.9L462.14 555.9C462.14 555.9 460.01 546.31 459.57 535.11L454.26 456.03C451.46 415.7 432.97 401.36 416.54 401.36L388.16 401.36L388.13 555.87L337.14 555.87L337.14 218.12L416.08 218.12C464.39 218.65 505.43 241.83 505.66 307.93C505.87 351.32 487.78 372.11 473.81 380.51C493.15 391.79 502.89 413.84 505.2 451.22C505.2 451.22 510.5 534.85 510.5 534.79C510.94 546.57 513.13 555.9 513.16 555.9ZM388.16 357.77L415.09 357.77C446.21 357.77 452.78 331.7 454.26 316.74C454.44 314.99 454.5 313.36 454.5 308.78C454.5 304.87 454.29 302.74 454.23 300.9C453.59 275.74 439.18 261.66 412.61 261.66L388.16 261.66L388.16 357.77Z" />
		<path id="path16" class="shp0" d="M858.69 469.36C858.49 473.09 858.22 476.44 858.05 478.83C856.59 497.7 849.97 517.76 826.89 517.76C805.37 517.76 796.88 496.01 795.3 480C794.37 470.26 794.6 462.74 794.4 434.13C794.16 400.75 795.24 392.17 795.71 386.75C797.55 365.64 805.72 349.28 826.89 349.13C848.66 348.99 857.82 367.94 858.05 386.55C858.05 386.75 858.52 391.24 858.84 401.12L909.95 401.12C909.77 397.71 909.62 394.88 909.51 393.22C903.7 322.63 860.7 305.54 826.78 305.54C778.7 305.54 749.42 336.13 744.14 393.84C743.67 398.44 742.97 406.93 742.74 434.13C742.5 453.93 743.76 470.14 744.05 474.26C747.35 528.14 778.3 561.24 826.78 561.35C876.98 561.53 904.69 530.91 909.51 474.26C909.65 472.19 909.95 470.76 909.8 469.36L858.69 469.36" />
	</g>
</svg>